<svg width="154" height="34" viewBox="0 0 154 34" fill="none" xmlns="http://www.w3.org/2000/svg">
<path d="M102.946 32.9718C114.947 32.524 127.377 32.2319 138.321 29.8349C146.927 27.9019 154.351 23.4472 153.858 18.3353C153.708 13.6756 142.512 8.32402 134.649 6.21357C129.203 4.71552 123.481 3.4957 117.531 2.80024C104.188 1.22458 90.3331 -0.78658 76.9484 0.31657C79.9511 0.743076 82.9915 1.09311 86.052 1.29795C94.0717 1.60021 102.049 2.3199 109.959 3.27562C116.742 4.06497 123.592 4.8578 129.927 6.49928C135.36 7.77198 140.458 9.48942 144.396 11.8399C146.623 13.0422 148.696 14.3532 150.024 15.8524C153.544 20.112 148.424 24.6604 142.086 27.0624C132.319 30.5355 119.45 30.86 107.587 31.4124C86.3783 32.2573 64.6094 31.3205 43.526 28.4355C31.5549 26.8502 19.5536 24.4686 9.36051 20.6355C-6.64103 14.2535 9.95745 9.4953 21.3131 7.27845C48.0886 2.5123 79.3738 2.95974 107.067 8.60672C108.049 8.88641 109.743 9.16047 109.717 9.83306C110.63 8.52178 104.945 6.92237 102.918 6.4276C75.6853 1.14987 38.0939 1.27079 13.2898 7.53339C7.18265 9.21621 -0.367795 11.5556 0.0139001 15.6466C1.29385 22.7066 28.6345 27.6805 40.2818 29.4228C60.8887 32.3298 82.0973 33.528 102.946 32.9718Z" fill="#FE7203"/>
</svg>
