<svg width="34" height="40" viewBox="0 0 34 40" fill="none" xmlns="http://www.w3.org/2000/svg">
<path d="M29.5484 25.9634C31.185 23.7313 32.4167 21.1522 32.8616 18.4064C33.0868 17.0159 33.0748 15.6051 32.998 14.2025C32.9334 13.0203 32.8048 11.8378 32.5742 10.6759C32.1542 8.56001 31.3756 6.47765 30.0367 4.76601C26.6784 0.472665 20.5757 -0.358333 15.4771 0.120395C12.7757 0.374002 10.0845 1.12487 7.79979 2.62219C5.71248 3.99013 4.08901 5.98966 3.22967 8.33705C2.75967 9.62107 2.511 10.9709 2.43828 12.3345C2.35058 13.9785 2.2479 15.6082 1.78438 17.1994C1.59431 17.852 1.33815 18.4865 1.0258 19.0901C0.698074 19.7233 0.16384 20.3066 0.0339862 21.0211C-0.0959443 21.7356 0.147781 22.5078 0.746095 22.9457C1.16491 23.2523 1.60851 23.2784 2.09959 23.2652C2.39813 23.2571 2.69675 23.2491 2.99529 23.2411C2.97051 23.9076 2.51409 24.4599 2.27237 25.0731C2.0305 25.6865 2.1558 26.232 2.60164 26.6249C2.29793 27.3144 2.37868 28.1117 3.12105 28.4603C3.23747 29.249 2.94287 30.0416 3.03412 30.8374C3.12653 31.6431 3.5279 32.3964 4.23855 32.8169C4.96864 33.2489 5.81439 33.2734 6.63743 33.2102C7.48665 33.1451 8.33255 33.0303 9.1756 32.9108C9.63611 32.8456 10.0961 32.7763 10.5555 32.7036C10.5187 33.4082 10.4599 34.1126 10.3865 34.8137C10.2247 36.3595 10.0181 37.9407 9.5342 39.4233C9.478 39.5955 9.47723 39.8364 9.64359 39.9537C9.78873 40.0561 9.9856 39.98 10.0409 39.8107C10.8243 37.4104 11.0638 34.7778 11.1591 32.263C11.1645 32.1207 11.0503 31.8469 10.8642 31.8773C9.35625 32.1235 7.82673 32.3778 6.29945 32.455C5.39372 32.5008 4.33605 32.3398 3.84304 31.4773C3.60032 31.0527 3.55554 30.5412 3.61028 30.0634C3.68061 29.4489 3.77495 28.8714 3.68053 28.2522C3.65729 28.0995 3.63676 27.9185 3.50659 27.816C3.33575 27.6816 3.04053 27.6959 2.99645 27.4295C2.96148 27.218 3.12638 26.9388 3.24651 26.7714C3.35737 26.617 3.37551 26.2746 3.18196 26.162C2.97661 26.0426 2.70586 25.901 2.72478 25.636C2.74307 25.3799 2.9526 25.0958 3.06886 24.8759C3.42808 24.1962 3.65984 23.5169 3.53809 22.7397C3.51748 22.6082 3.40083 22.4532 3.25461 22.4572C2.38038 22.4806 0.654688 22.804 0.58042 21.4743C0.554789 21.0155 0.838272 20.6686 1.06463 20.3019C1.26373 19.9795 1.44986 19.648 1.61809 19.3084C1.95916 18.6198 2.21856 17.8947 2.41697 17.1528C2.65059 16.2794 2.79171 15.3835 2.88674 14.4852C2.98054 13.5986 2.97537 12.71 3.05643 11.8236C3.18999 10.3638 3.56426 8.92626 4.21268 7.60943C7.05602 1.83435 14.1027 0.408822 19.9628 0.885697C22.8059 1.11707 25.7234 1.85666 27.9913 3.66496C29.8348 5.13473 31.0301 7.21392 31.6716 9.46111C32.011 10.6499 32.2196 11.8761 32.3344 13.1062C32.4704 14.563 32.5529 16.0741 32.3901 17.5308C32.0478 20.593 30.6679 23.4454 28.7963 25.8626C28.2422 26.5781 27.6453 27.2641 26.9953 27.8943C26.8726 28.0132 26.7346 28.1221 26.6172 28.2461C26.439 28.4344 26.4554 28.6102 26.4859 28.8416C26.805 31.2623 27.729 33.688 29.0767 35.7167C29.5749 36.4668 30.1491 37.1549 30.7878 37.7892C30.9262 37.9266 31.1229 37.783 31.1851 37.6462C31.2693 37.4609 31.2139 37.253 31.0757 37.1158C29.5061 35.5569 28.4143 33.5697 27.7214 31.481C27.4938 30.795 27.3103 30.0926 27.1717 29.3832C27.1327 29.1836 27.0977 28.9833 27.0677 28.7822C27.9976 27.9522 28.8161 26.9623 29.5484 25.9635L29.5484 25.9634Z" fill="black"/>
<path d="M28.1152 14.0711C28.09 13.3083 27.8384 12.6066 27.4377 11.9948C27.4189 11.9186 27.396 11.8433 27.3678 11.7696C27.741 11.6846 28.0796 11.493 28.3554 11.1289C29.344 9.82389 28.7583 7.92327 27.1752 7.46901C25.9533 7.11836 24.8508 7.62851 24.1137 8.51069C23.9585 7.93593 23.678 7.39582 23.2624 6.93902C23.2267 6.8998 23.1901 6.86159 23.1528 6.82399C23.3862 6.00681 23.3268 5.04758 22.8285 4.34164C21.88 2.9981 19.8097 3.14795 18.6559 4.13529C18.5952 4.18716 18.5367 4.24337 18.479 4.3015C18.2396 4.19334 17.9971 4.11174 17.7594 4.06642C17.343 3.98698 16.9482 4.20106 16.6552 4.50631C15.4673 3.97046 13.9618 4.22337 12.9809 5.09753C12.3197 5.68681 11.96 6.51904 11.8934 7.38023C11.5427 7.76153 11.261 8.21053 11.0762 8.69721C10.4326 10.3915 11.0634 12.3988 12.4945 13.4929C13.0689 13.932 13.7753 14.2096 14.5104 14.3151C14.5341 14.4078 14.561 14.4993 14.592 14.5888C14.9986 15.7585 16.0234 16.5087 17.1774 16.6728C17.766 17.8185 18.9561 18.4941 20.2445 18.4176C21.1782 18.3622 22.078 17.9548 22.6953 17.278C23.4512 17.4954 24.2352 17.664 25.0164 17.6208C26.9162 17.5157 28.1767 15.9353 28.1152 14.0713V14.0711ZM26.8707 12.7465C26.6594 13.3319 25.8991 13.5321 25.3436 13.4682C24.6041 13.3831 24.0894 12.7756 23.8728 12.0983C23.8289 11.9608 23.7962 11.8184 23.7736 11.6731C23.7753 11.6696 23.777 11.6661 23.7787 11.6625C24.5151 11.5322 25.2949 11.6196 26.0234 11.7457C26.1546 11.7684 26.2856 11.7877 26.4154 11.8016C26.6008 11.9808 26.7699 12.1744 26.9174 12.3823C26.9286 12.5 26.9156 12.622 26.8707 12.7465ZM23.4843 14.8921C23.4677 14.8998 23.4502 14.9049 23.4333 14.9116C23.3678 14.5956 23.2301 14.2966 23.0083 14.0435C22.7333 13.7297 22.3654 13.5471 21.9777 13.523C22.428 13.2918 22.8329 12.9615 23.1701 12.571C23.2474 12.639 23.3212 12.7107 23.3906 12.7867C23.4543 12.8565 23.5183 12.9376 23.5796 13.0265C23.6286 13.1189 23.6822 13.2079 23.7406 13.293C24.0394 13.861 24.1506 14.5858 23.4842 14.892L23.4843 14.8921ZM22.3744 16.3823C21.7127 16.1787 20.8759 15.9338 20.4946 15.3017C20.4815 15.28 20.4696 15.2581 20.4581 15.2363C20.6704 15.0047 20.9348 14.7271 21.2258 14.5316C21.5097 15.1959 22.1269 15.7058 22.8502 15.7596C22.7884 15.9932 22.6754 16.2232 22.5339 16.4308C22.4806 16.4148 22.4275 16.3985 22.3745 16.3823H22.3744ZM17.5458 15.9339C17.3287 15.3949 17.2621 14.7827 17.3753 14.1804C17.4075 14.0092 17.4535 13.8463 17.5112 13.6916C17.6197 13.6192 17.7248 13.5413 17.8252 13.4568C18.0633 13.2565 18.2723 13.0114 18.4245 12.7407C18.7491 13.2762 19.2878 13.6599 19.9094 13.8057C19.7685 14.1907 19.7097 14.6058 19.7615 15.0069C19.2878 15.4901 18.7425 15.8212 18.0541 15.9119C17.8831 15.9344 17.7131 15.941 17.5458 15.9339ZM17.0858 13.104C16.4498 13.4541 15.7078 13.608 14.9818 13.5803C14.9196 12.8864 15.1251 12.1667 15.5949 11.6449C16.1361 11.044 17.1118 10.677 17.7955 11.272C17.9917 11.4427 18.0785 11.6261 18.0897 11.8098C17.7161 12.1115 17.3996 12.488 17.1715 12.9407C17.1457 12.9918 17.1225 13.0441 17.099 13.0964C17.0946 13.0989 17.0901 13.1016 17.0857 13.104L17.0858 13.104ZM16.9393 5.53642C17.1185 5.67723 17.352 5.89363 17.4883 6.1311C17.4425 6.33638 17.4171 6.54159 17.4136 6.74208C17.3651 6.76555 17.3117 6.78137 17.2588 6.78948C16.9417 6.83796 16.7917 6.61115 16.7163 6.33754C16.643 6.07104 16.6663 5.72286 16.7863 5.42734C16.8387 5.462 16.8901 5.4979 16.9392 5.5365L16.9393 5.53642ZM18.5654 5.22522C18.8114 5.36418 19.0484 5.51982 19.2716 5.69329C19.1816 5.71244 19.0922 5.73452 19.0038 5.75992C18.7094 5.84453 18.4174 5.97963 18.1432 6.15318C18.1372 6.12879 18.1305 6.10447 18.1233 6.08023C18.2238 5.7749 18.3733 5.48354 18.5654 5.2253V5.22522ZM21.4844 10.0641C22.0774 10.0877 22.6765 10.1473 23.2623 10.2637C23.2213 10.4573 23.1926 10.6603 23.1778 10.8682C22.9416 10.9951 22.7126 11.1341 22.4912 11.2761C21.307 10.7596 19.8665 10.8042 18.7272 11.3943C18.7668 11.1809 18.8685 10.9712 19.0429 10.781C19.1755 10.6366 19.3258 10.5209 19.4874 10.4264C19.6689 10.3655 19.8455 10.2888 20.0173 10.2004C20.4881 10.0627 21.006 10.0451 21.4844 10.0641ZM19.3447 12.7447C19.1235 12.5839 18.9521 12.382 18.8429 12.1609C19.5047 11.7864 20.3087 11.6285 21.1024 11.7122C21.2924 11.7322 21.4841 11.7666 21.6737 11.814C21.1525 12.1745 20.6545 12.5771 20.2903 13.0876C19.9521 13.0553 19.6257 12.9489 19.3448 12.7447L19.3447 12.7447ZM19.9944 6.38023C20.0883 6.50453 20.1624 6.63878 20.1903 6.77991C20.2488 7.07443 19.8017 7.27446 19.5306 7.37644C19.1276 7.46523 18.5079 7.58443 18.1679 7.26033C18.1079 7.20313 18.0668 7.13573 18.0392 7.06277C18.576 6.61153 19.282 6.39892 19.9944 6.38023ZM17.0355 9.87794C17.169 10.0401 17.329 10.1749 17.5074 10.2815C17.2874 10.2141 17.0537 10.187 16.8203 10.204C16.9026 10.101 16.9744 9.99196 17.0355 9.87794ZM18.2935 10.7861C18.1852 10.6609 18.0598 10.5548 17.9217 10.4688C18.0785 10.5198 18.242 10.5531 18.4087 10.568C18.3666 10.639 18.3274 10.7114 18.2935 10.7861ZM22.5279 14.5435C22.6718 14.673 22.7688 14.8182 22.8281 14.9719C22.4051 14.9086 21.9927 14.6505 21.7875 14.295C22.0317 14.2601 22.2823 14.3224 22.5279 14.5435ZM22.5597 12.1523C22.584 12.1653 22.6084 12.1777 22.6324 12.1912C22.4516 12.3719 22.2504 12.5322 22.0297 12.6654C22.1817 12.4681 22.3656 12.2933 22.5597 12.1524V12.1523ZM19.8733 9.4585C19.6871 9.5154 19.5069 9.5892 19.3352 9.68323C18.6496 9.89623 17.7135 9.85531 17.3328 9.15023C17.3166 9.12035 17.3034 9.08986 17.2905 9.05929C17.3219 8.79441 17.3096 8.52374 17.2555 8.26017C17.3193 8.01513 17.4385 7.77805 17.5805 7.57122C17.6663 7.74014 17.788 7.88945 17.9536 8.00379C18.4176 8.32433 19.0311 8.26102 19.558 8.15093C19.583 8.1497 19.6095 8.1446 19.638 8.13387C19.6645 8.12808 19.6884 8.11812 19.7104 8.10554C20.1892 7.914 20.6409 7.61353 20.7559 7.07652C20.8035 6.85395 20.783 6.63508 20.7185 6.4274C20.9755 6.4674 21.226 6.53132 21.4614 6.61763C21.797 6.74061 22.1079 6.90837 22.3848 7.11357C22.1918 7.4758 21.9277 7.80569 21.6404 8.09844C21.1461 8.60218 20.5292 9.12406 19.8734 9.45858L19.8733 9.4585ZM16.6332 8.27994C16.5896 8.56774 16.6006 8.8642 16.6789 9.16143C16.6497 9.27036 16.6077 9.37728 16.5479 9.47957C15.6251 11.0597 13.342 10.1931 12.7214 8.82467C12.5622 8.47348 12.4806 8.10623 12.4703 7.74416C12.8352 7.4125 13.2737 7.16182 13.7558 7.03236C14.5289 6.82461 15.4382 6.93446 16.0664 7.45928C16.321 7.67197 16.5226 7.96287 16.6332 8.27994ZM20.5447 13.8788C20.6755 13.8792 20.8046 13.8706 20.9321 13.8541C20.7231 13.9994 20.5346 14.1762 20.3559 14.363C20.394 14.1971 20.4601 14.0343 20.5447 13.8788ZM25.5518 8.27361C26.7378 7.84081 28.634 8.54219 28.2071 10.0728C28.0263 10.7211 27.5276 11.042 26.9128 11.0657C26.5947 10.734 26.1772 10.4918 25.7322 10.3753C25.4751 10.2183 25.207 10.0809 24.9328 9.96587C24.7123 9.87338 24.4869 9.79301 24.2583 9.72245C24.2609 9.60487 24.2587 9.48745 24.2519 9.37041C24.5606 8.87501 25.0003 8.47487 25.5518 8.27361ZM23.652 9.19763C23.5952 9.30433 23.5435 9.41403 23.4961 9.52567C22.9396 9.40793 22.3717 9.33953 21.8081 9.30356C21.6543 9.29375 21.4979 9.28719 21.3407 9.28464C21.3564 9.27167 21.3723 9.25878 21.3879 9.24581C21.969 8.76253 22.5059 8.20598 22.8606 7.53996C23.2791 7.99429 23.5633 8.55987 23.652 9.19756L23.652 9.19763ZM19.4708 4.45081C20.7489 3.81243 22.6726 4.1728 22.7011 5.88846C22.704 6.06332 22.6854 6.23317 22.6504 6.39822C21.9491 5.89826 21.0838 5.62227 20.2195 5.60513C19.9235 5.26938 19.5434 4.93602 19.1276 4.66226C19.236 4.58275 19.3501 4.51118 19.4708 4.45081ZM17.5748 4.82099C17.7088 4.82084 17.8513 4.8633 17.9907 4.92243C17.9014 5.06502 17.8196 5.21387 17.7484 5.36789C17.6538 5.24375 17.5505 5.13003 17.4453 5.03137C17.3894 4.97887 17.3312 4.92992 17.272 4.88275C17.3627 4.84338 17.4636 4.82107 17.5748 4.82099ZM13.9591 5.29509C14.5692 5.00635 15.2847 4.91626 15.9445 5.06788C16.0431 5.09058 16.141 5.11976 16.2374 5.15412C16.0696 5.58351 16.0178 6.14647 16.1453 6.6296C15.8633 6.44393 15.5443 6.30913 15.2019 6.23363C14.2777 6.02989 13.3735 6.25764 12.6291 6.75088C12.8531 6.13427 13.3065 5.60389 13.9591 5.29509ZM11.4143 10.3658C11.3428 9.64973 11.5498 8.9414 11.9429 8.3556C12.0245 8.80707 12.1872 9.24411 12.4308 9.6349C13.0206 10.5814 14.1507 11.164 15.207 11.0714C14.6402 11.7228 14.3684 12.6336 14.3979 13.5175C12.8521 13.2316 11.5736 11.961 11.4144 10.3659L11.4143 10.3658ZM15.1776 14.3636C15.7352 14.3641 16.2912 14.2648 16.8027 14.0617C16.7 14.6441 16.7198 15.2494 16.8618 15.8223C16.1138 15.6042 15.4869 15.0857 15.1776 14.3636ZM19.6941 17.6244C18.9813 17.5382 18.4012 17.1872 17.9927 16.6904C18.1518 16.6749 18.3113 16.6485 18.4698 16.6099C19.0845 16.4608 19.5575 16.1279 19.9889 15.7186C19.9913 15.7231 19.9932 15.7277 19.9957 15.7321C20.3975 16.455 21.1873 16.8012 21.9416 17.0471C21.3002 17.5173 20.4821 17.7198 19.6941 17.6244L19.6941 17.6244ZM24.9411 16.8501C24.34 16.8658 23.7446 16.7595 23.162 16.6086C23.2357 16.4659 23.2992 16.3162 23.3505 16.1593C23.3997 16.0087 23.4346 15.8533 23.4558 15.6964C24.2818 15.4634 24.5693 14.7532 24.5325 14.0075C24.6825 14.086 24.8454 14.149 25.0231 14.1922C25.7154 14.3607 26.5036 14.1841 27.011 13.6689C27.1535 13.5243 27.2635 13.3585 27.3425 13.1807C27.4108 13.3653 27.4632 13.5578 27.4967 13.7583C27.6151 14.4668 27.4625 15.228 27.0457 15.8183C26.5601 16.506 25.7651 16.8283 24.9411 16.8499V16.8501Z" fill="#F07C00"/>
</svg>
