<svg width="142" height="5" viewBox="0 0 142 5" fill="none" xmlns="http://www.w3.org/2000/svg">
<path d="M1.13274 2.39609C1.89411 2.15703 2.91956 1.93751 3.7084 1.80151C3.95534 1.75868 3.85063 1.8665 4.02269 1.84039C4.35682 1.78996 4.65331 1.67768 4.98664 1.63541C5.09641 1.622 4.99306 1.77634 5.10714 1.75958C5.73621 1.66599 6.31308 1.49793 6.94504 1.381C7.3626 1.30382 7.7794 1.22684 8.19629 1.15011C10.9696 0.649186 13.6701 0.462523 16.4485 0.326913C17.5006 0.278215 18.7879 0.328848 19.8737 0.236451C20.0021 0.225447 19.9211 0.118 19.9452 0.107933C20.3189 -0.0460674 20.199 0.181913 20.4474 0.202422C21.433 0.283538 22.5236 0.263011 23.4695 0.199345C23.8668 0.172151 23.4626 -0.0387543 23.8667 0.075936C23.8948 0.0836799 23.7958 0.20316 23.9057 0.2134C24.1557 0.236286 24.6328 0.206378 24.8228 0.212494C25.1934 0.224714 25.2655 0.22242 25.6118 0.218612C26.0897 0.214447 26.6672 0.265793 27.1832 0.234254C27.2944 0.227165 27.1457 0.108218 27.3233 0.0860719C27.5073 0.0638432 27.9605 0.0704088 28.121 0.0977299C28.2789 0.125025 28.2125 0.22008 28.2405 0.241569C28.3307 0.312326 28.4684 0.316444 28.608 0.294817C28.819 0.261005 29.035 0.164271 29.0772 0.160278C30.3455 0.0484617 31.4274 0.194776 32.6142 0.200289C33.5207 0.204287 34.4825 0.164515 35.336 0.179954C36.3601 0.198929 37.2215 0.275278 38.2139 0.278673C38.319 0.279188 38.1979 0.135875 38.3263 0.136226C39.6825 0.140043 41.0341 0.179418 42.383 0.301741C42.5187 0.314147 42.3411 0.434869 42.4765 0.454694C43.3023 0.573074 44.609 0.846756 45.1137 0.317281C45.675 0.351053 46.356 0.388854 46.856 0.510012C47.1782 0.588016 46.8603 0.715662 47.2596 0.667634C47.3497 0.65697 47.2359 0.535619 47.3707 0.528593C47.9378 0.499115 48.5569 0.553324 49.1183 0.506661C49.2325 0.496891 49.2042 0.389918 49.237 0.371641C49.5117 0.223847 49.9586 0.491818 50.0563 0.513051C50.801 0.671746 51.3537 0.632341 52.0497 0.655288C52.2114 0.660687 52.024 0.512697 52.1802 0.512788C52.9927 0.515265 53.8302 0.551901 54.6192 0.638795C54.7941 0.658454 54.6292 0.775093 54.7126 0.790703C55.082 0.858125 55.1735 0.631275 55.5278 0.691654C55.6025 0.704094 55.5571 0.806783 55.5704 0.81862C55.7791 1.0044 55.972 0.756096 56.0269 0.752173C56.7315 0.697182 57.1598 0.976017 57.8407 0.960085C57.9217 0.957901 57.7437 0.820536 57.9709 0.822442C59.4813 0.834273 61.0761 0.923526 62.5658 1.08031C62.7993 1.10458 62.6288 1.19763 62.6432 1.21032C62.8764 1.40894 63.0384 1.15925 63.1141 1.15227C63.7058 1.10364 64.2685 1.33768 64.6783 1.04816C65.998 1.15047 67.3252 1.17869 68.6404 1.23545C69.8414 1.28725 71.0369 1.36239 72.2251 1.53862C72.2575 1.54305 72.1944 1.66635 72.259 1.67463C73.0311 1.77548 72.8781 1.57404 73.4021 1.35562C73.5336 1.30077 73.9035 1.60407 73.941 1.62672C74.0646 1.70959 73.9259 1.89121 73.9677 1.90797C74.3137 2.04029 74.2742 1.41988 74.746 1.43851C74.7608 1.44013 74.6941 1.55137 74.7334 1.56427C74.8552 1.60469 74.9781 1.56434 75.0948 1.60823C75.357 1.70947 75.4548 2.01409 75.8731 1.85593C75.9268 1.83539 75.8579 1.48156 76.279 1.51515C76.4435 1.52869 77.1828 1.55263 77.3871 1.5837C77.5945 1.61485 77.4469 1.72197 77.4616 1.72747C78.0126 1.89946 77.7943 1.95258 78.0677 2.18516C78.3383 2.4168 78.2816 1.88829 78.3969 1.83425C78.5091 1.78026 78.9187 1.92036 79.0138 1.96713C79.111 2.01401 78.9847 2.08075 79.0716 2.10858C79.6593 2.29119 79.3427 1.85842 79.5405 1.78295C80.0073 1.60416 80.3502 2.00829 80.7657 2.06325C80.8799 2.07817 80.79 1.98568 80.8921 1.98147C81.2939 1.96585 81.5298 2.09705 81.9902 2.00358C82.0657 1.98838 82.4428 1.76858 82.6746 1.94972C82.7073 1.97581 82.608 2.06921 82.7772 2.09753C83.0317 2.14009 83.49 2.17881 83.7651 2.15657C83.9684 2.14011 83.7423 1.97147 83.9954 2.03065C84.1078 2.05704 83.8945 2.14287 84.1059 2.18463C84.316 2.22637 84.8575 2.24184 85.0632 2.24582C85.269 2.24978 85.1608 2.12443 85.1777 2.11684C85.2803 2.0736 85.6755 2.0287 85.711 2.03003C86.6146 2.05339 87.4791 2.1313 88.3424 2.19845C89.1642 2.26194 89.9752 2.34884 90.8096 2.38785C90.9445 2.39438 90.866 2.25904 90.8867 2.25872C91.3519 2.24604 90.9591 2.55284 91.2692 2.6954C91.2465 2.43239 91.4318 2.49634 91.7578 2.49884C91.9145 2.49983 91.8395 2.39156 91.8546 2.38267C92.1007 2.25275 92.2417 2.46496 92.2795 2.50923C92.418 2.67204 92.6017 2.51373 92.6955 2.62273C92.7894 2.73101 92.5361 2.8529 92.846 2.88151C92.9423 2.7975 92.7354 2.53287 92.9749 2.51683C93.874 2.45749 95.5095 2.79956 96.2198 2.87318C96.9313 2.94911 97.1584 2.94722 97.5733 3.00977C98.2428 3.1093 98.0965 2.95972 98.4008 2.88986C98.4364 2.88164 98.478 2.87447 98.5278 2.86886C99.0028 2.81518 98.7471 3.24416 98.809 3.34352C98.8694 3.44272 98.9474 3.34909 99.0262 3.40633C99.1047 3.46354 98.9241 3.51771 99.1148 3.54885C99.3033 3.57992 99.8438 3.44155 99.9174 3.34579C100.074 3.14304 99.8507 2.90823 100.353 3.01486C100.382 3.02112 100.281 3.1323 100.391 3.15036C101.282 3.29061 102.2 3.34462 103.091 3.46767C103.213 3.48473 103.097 3.60907 103.168 3.62046C103.899 3.73876 103.653 3.5077 104.07 3.28366C103.965 3.60269 104.176 3.81104 104.742 3.83793C105.083 3.85406 105.03 3.71024 105.252 3.62001C105.318 3.59278 105.553 3.69971 105.601 3.63513C105.753 3.42388 105.539 3.17198 106.114 3.29199C106.14 3.29759 106.054 3.41323 106.141 3.4239C106.705 3.49313 106.788 3.26889 107.4 3.26334C107.887 3.25922 108.733 3.42535 109.285 3.46346C109.266 3.82696 109.778 3.75799 110.001 3.51268C110.358 3.53221 110.743 3.52715 111.086 3.56916C111.203 3.58349 111.124 3.68715 111.138 3.69885C111.358 3.88208 111.527 3.64125 111.602 3.63313C112.437 3.55592 113.11 3.75023 113.91 3.57569C113.939 3.56937 113.982 3.31707 114.198 3.5029C114.212 3.51568 113.946 3.62918 114.323 3.64017C114.689 3.65122 115.407 3.78764 115.922 3.66686C116.049 3.63792 116.362 3.43028 116.62 3.58721C116.653 3.60854 116.618 3.68149 116.666 3.72119C116.82 3.84766 116.914 3.5908 117.1 3.80456C117.285 4.01811 117.688 4.17369 118.207 4.0062C118.227 4.00115 118.335 3.795 118.505 3.79124C118.763 3.78621 119.147 3.80904 119.419 3.78657C119.549 3.77567 119.456 3.65688 119.478 3.65282C119.558 3.63918 119.661 3.62445 119.734 3.61287C120.483 3.50718 121.081 3.5398 121.933 3.48701C122.106 3.47664 122.583 3.24855 122.933 3.34241C123.319 3.44448 123.015 4.10492 123.844 3.8525C124.179 3.75056 124.507 2.91869 125.17 3.23753C126.342 2.97569 127.462 3.01934 128.627 2.68941C128.679 2.67465 128.813 2.43201 128.938 2.41497C129.122 2.39029 129.243 2.47402 129.376 2.45914C129.934 2.39933 130.432 2.22708 130.965 2.14928C131.17 2.119 131.117 2.23535 131.36 2.1992C131.601 2.16324 131.742 1.99744 132.079 2.00597C132.334 2.01262 132.632 2.24821 132.967 2.22136C132.931 1.94294 133.155 1.90856 133.544 1.76203C133.618 1.73376 133.518 1.65293 133.552 1.63461C133.692 1.5578 133.84 1.61284 133.973 1.53256C134.005 1.51326 133.989 1.41881 134.014 1.39772C134.226 1.21511 134.657 1.35382 134.731 1.37803C135.013 1.47027 135.114 1.32449 135.321 1.3426C135.527 1.36074 135.247 1.48487 135.482 1.47518C135.975 1.45383 136.586 1.32195 137.071 1.23444C137.266 1.19856 137.109 1.09824 137.136 1.09019C137.528 0.982872 137.96 1.0398 138.136 0.747778C138.531 1.34377 138.366 0.639248 138.963 0.663518C139.01 0.665785 139.124 0.961464 138.959 1.03815C138.79 1.11547 138.514 1.06762 138.287 1.18265C138.235 1.2093 137.959 1.55806 137.921 1.58329C137.6 1.78432 137.461 1.33722 137.439 1.31535C137.181 1.08357 136.84 1.46819 136.74 1.50938C136.278 1.69822 135.859 1.71118 135.47 1.85682C135.218 1.95107 135.244 2.25614 135.038 2.28533C134.343 2.38408 134.032 2.0094 133.448 2.49097C133.324 2.59346 133.523 2.89594 132.976 2.72881C132.94 2.71854 132.533 2.54847 132.342 2.73614C132.319 2.75978 132.337 2.85517 132.303 2.86944C132.077 2.96307 131.902 2.91534 131.651 2.99687C131.4 3.0782 131.095 3.18689 130.795 3.20449C130.612 3.2156 130.354 3.07575 130.262 3.04623C130 2.96069 129.774 3.21 129.601 3.0818C129.426 2.95319 129.682 2.67257 129.271 2.63789C129.297 2.88919 129.305 3.15017 129.321 3.40437C128.453 3.53606 127.587 3.58745 126.717 3.72595C126.608 3.74342 126.739 3.86137 126.623 3.88354C126.138 3.97583 125.697 3.94049 125.192 4.04802C124.805 4.1314 124.389 4.33109 123.983 4.41941C123.692 4.16577 123.094 4.33901 122.647 4.3651C122.491 4.37443 122.492 4.29664 122.378 4.28462C121.948 4.24085 122.174 4.47127 122.064 4.52433C121.593 4.75005 121.484 4.18166 120.908 4.25752C120.878 4.26141 120.533 4.60681 120.484 4.63095C120.168 4.78872 120.419 4.53001 120.211 4.5282C120.072 4.52691 119.947 4.51966 119.824 4.51747C119.604 4.51586 119.391 4.52318 119.101 4.5974C118.978 4.63158 118.668 4.83905 118.404 4.70028C118.371 4.68209 118.385 4.57979 118.359 4.57482C117.864 4.49284 117.87 4.81104 117.593 4.92647C117.318 5.04158 116.891 4.82796 116.798 4.76556C116.57 4.6043 116.973 4.69276 116.986 4.67622C117.13 4.48169 116.808 4.52036 116.58 4.50678C116.544 4.19402 116.207 4.21626 116.332 4.49395C116.347 4.52431 116.533 4.49308 116.58 4.50678C116.374 4.81678 116.01 4.85972 115.607 4.57392C115.421 4.43974 115.594 4.283 115.027 4.34068C114.769 4.36636 114.869 4.58225 114.636 4.64047C114.122 4.77331 113.433 4.5663 112.902 4.59096C112.705 4.59987 112.896 4.72051 112.76 4.73063C112.412 4.75792 112.088 4.66407 111.741 4.70307C111.709 4.70673 111.785 4.83179 111.675 4.83131C110.836 4.82978 110.106 4.73305 109.235 4.70599C108.808 4.69297 108.052 4.73722 107.619 4.70832C106.858 4.65924 105.939 4.44353 105.287 4.45955C104.866 4.46971 104.952 4.59701 104.767 4.67332C104.404 4.82104 103.81 4.50086 103.725 4.45144C103.723 4.44988 104.088 4.43763 103.897 4.36523C103.79 4.22789 103.729 4.45105 103.725 4.45144C103.667 4.41963 102.952 4.35717 102.804 4.37329C102.724 4.38228 102.763 4.50147 102.721 4.50394C101.751 4.56062 100.768 4.53748 99.7942 4.42629C99.7769 4.42293 99.8106 4.29362 99.7701 4.28734C99.1977 4.19574 98.8356 4.3345 98.3537 4.40024C98.3381 4.40238 98.3226 4.40439 98.3072 4.40627C97.8477 4.46201 97.4962 4.40101 97.2378 4.16464C96.8815 4.16813 96.3779 4.03017 96.0899 3.94639C95.8033 3.86282 95.7402 4.11327 95.714 4.11621C94.8966 4.20985 94.4425 4.02163 93.6142 3.91953C93.2201 3.87055 92.4351 3.82987 92.0088 3.81645C91.6708 3.8062 91.4767 3.72755 91.1649 3.73723C91.1231 3.73852 91.1545 3.85544 91.1415 3.85864C90.7868 3.96287 90.9765 3.70139 90.9102 3.64563C90.6697 3.44353 90.5187 3.33329 90.0743 3.38428C89.9709 3.39577 89.6507 3.7736 89.4687 3.78582C89.2312 3.80102 89.3285 3.66307 89.0797 3.68424C89.0584 3.68602 89.0581 3.77427 88.9066 3.76297C88.7075 3.74861 88.5042 3.73299 88.2974 3.71871C87.7505 3.68181 87.1877 3.63968 86.643 3.62832C86.5387 3.62579 86.6677 3.77029 86.5171 3.76894C85.8126 3.76255 85.0413 3.73054 84.3583 3.63992C84.1901 3.61718 84.2995 3.52293 84.2639 3.49246C84.046 3.308 83.717 3.55218 83.6647 3.55509C82.4038 3.63093 81.4568 3.36095 80.1725 3.41958C80.1055 3.42337 79.5548 3.67599 79.3291 3.43099C79.3149 3.41472 79.0823 3.164 78.8713 3.32036C78.8578 3.33013 78.9995 3.46011 78.7441 3.43705C78.4848 3.41386 78.0718 3.47997 77.7233 3.32932C77.6168 3.282 77.3541 3.03065 77.0187 3.20888C76.9984 3.22144 76.461 3.63344 76.2934 3.32738C76.2651 3.27698 76.3117 2.96213 75.9025 3.10801C75.8265 3.13642 75.9597 3.21244 75.7604 3.24851C75.4528 3.30411 75.0493 3.20308 74.6656 3.32883C74.596 3.35102 74.3115 3.55463 74.0935 3.38281C74.0593 3.3559 74.1306 3.253 74.012 3.23645C73.4478 3.15727 72.8597 3.2048 72.2864 3.10923C72.0809 3.07549 72.1937 2.90897 71.9862 2.85507C71.7825 2.80133 71.3434 2.74022 71.1283 2.81001C70.9056 2.87955 71.1362 3.16086 70.8041 3.16983C70.0516 3.18979 69.3224 3.14281 68.5706 3.08127C67.8924 3.02474 67.1962 2.95577 66.4991 2.91893C66.2884 2.90773 66.4607 3.01149 66.1474 3.0019C64.9869 2.96657 62.9836 2.9873 61.9822 2.74618C61.1838 2.55306 62.2011 2.46148 61.5876 2.37307C61.2899 2.33075 60.9551 2.63612 60.8853 2.64374C60.1845 2.72147 59.698 2.56513 59.067 2.58757C58.9359 2.59223 59.06 2.72461 58.9484 2.72716C58.5627 2.73687 58.1758 2.66714 57.8108 2.66599C57.6477 2.66579 57.6746 2.76466 57.5245 2.75233C57.1653 2.72398 56.8558 2.67307 56.5083 2.5704C56.4767 2.56105 56.6953 2.44591 56.4301 2.43314C55.9964 2.41269 55.4769 2.30615 54.9774 2.38469C54.8299 2.4084 54.8162 2.63197 54.5086 2.46809C54.4438 2.43386 54.536 2.1676 54.1636 2.38896C54.1022 2.42574 53.4732 2.7207 53.1805 2.51021C53.1027 2.45477 52.9064 2.22901 52.7295 2.25853C52.7055 2.26337 52.7976 2.38632 52.6516 2.39387C52.135 2.41837 51.6005 2.39053 51.071 2.41366C50.9296 2.42008 51.1363 2.55025 50.9257 2.55585C50.3481 2.57148 49.628 2.52056 49.0652 2.467C48.8578 2.44701 49.0041 2.34768 48.9893 2.33608C48.7508 2.14736 48.6004 2.3899 48.5193 2.40219C48.014 2.47532 47.6349 2.35013 47.1709 2.3694C47.0429 2.37441 47.1307 2.49403 47.105 2.50388C46.8386 2.59974 47.0403 2.39368 46.8738 2.36639C46.4074 2.28925 45.8856 2.28639 45.4123 2.29057C45.2384 2.29229 45.4305 2.43288 45.2746 2.43285C44.3507 2.43527 43.3906 2.40164 42.4931 2.3086C42.3233 2.29082 42.4324 2.18813 42.3974 2.16347C42.1564 1.99106 41.7947 2.21266 41.7123 2.23286C41.337 2.32512 41.1953 2.22975 40.8636 2.24099C39.2512 2.29749 37.2623 2.20614 35.7435 2.15172C33.7616 2.08144 32.2249 1.97151 30.3364 1.9975C30.2166 1.99907 30.3374 2.1385 30.2343 2.14166C29.701 2.15569 29.1453 2.15644 28.6186 2.15628C27.8226 2.15618 27.0439 2.1536 26.2521 2.18745C26.1415 2.19192 26.3024 2.32211 26.1254 2.33374C25.7636 2.35851 25.311 2.35806 24.9425 2.32214C24.7648 2.30483 25.0006 2.18729 24.8219 2.17221C24.4151 2.13671 23.9499 2.13644 23.5333 2.16697C23.3483 2.18044 23.6304 2.30936 23.3903 2.31636C21.7756 2.36696 20.1962 2.44125 18.5716 2.34391C18.458 2.33737 18.3447 2.06761 18.1117 2.1323C18.0979 2.2094 18.1034 2.29897 18.0999 2.38079C15.7692 2.54721 13.4563 2.6176 11.1718 2.92257C11.0761 2.93561 11.2611 3.05626 11.0772 3.08223C10.2696 3.1975 9.50123 3.35322 8.70961 3.47641C8.43359 3.52031 8.15674 3.55692 7.87278 3.58405C7.75915 3.59527 7.75988 3.33218 7.44386 3.44391C7.38779 3.46378 6.90814 3.60915 6.79465 3.69286C6.77943 3.70502 6.89557 3.80077 6.73895 3.84081C5.83066 4.07101 4.8725 4.27478 3.94589 4.43155C3.79754 4.45632 3.92125 4.29402 3.81561 4.31054C3.05716 4.43092 2.27686 4.73248 1.53923 4.80543C1.04268 4.85436 1.16352 4.59541 0.856692 4.45126C0.811774 4.43141 0.518177 4.50226 0.469408 4.38449C0.351151 4.08753 0.409085 3.71422 0.265562 3.40219C0.232943 3.33568 -0.132454 3.50935 0.0515225 3.28118C0.067228 3.26518 0.331627 3.137 0.388442 3.06053C0.426252 3.00811 0.306945 2.90658 0.392579 2.82982C0.480463 2.75252 0.615046 2.82857 0.76548 2.72526C0.91437 2.62156 0.805533 2.49914 1.13274 2.39609ZM94.7973 3.56575C94.5364 3.41919 94.4557 3.86231 94.7598 3.78207C94.7748 3.77767 94.8105 3.57297 94.7973 3.56575ZM127.541 3.24974C127.16 3.10728 126.963 3.43047 127.233 3.54479C127.505 3.65844 127.656 3.29282 127.541 3.24974ZM131.143 2.51831C130.709 2.43457 130.752 3.07253 131.167 2.87088C131.192 2.8593 131.168 2.5231 131.143 2.51831ZM2.01249 4.08681C2.00891 4.08156 1.79318 4.13154 1.79115 4.13819C1.71443 4.30531 2.14005 4.20674 2.01249 4.08681ZM134.699 1.71724C134.554 1.65671 134.209 1.82188 134.386 1.89794C134.525 1.95958 134.878 1.79269 134.699 1.71724ZM80.7683 2.28252C80.7633 2.27563 80.6092 2.2634 80.6105 2.30128C80.616 2.42331 80.8346 2.39773 80.7683 2.28252ZM140.77 0.479013C139.866 0.722862 139.229 0.308118 140.183 0.138527C140.357 0.103939 139.857 0.396573 140.086 0.38609C140.515 0.364591 140.678 -0.0335693 141.137 0.00228526C141.221 0.00919132 140.823 0.466813 140.768 0.480193C140.769 0.4798 140.769 0.479406 140.77 0.479013ZM94.6895 3.01493C94.6839 3.0085 94.4712 2.98336 94.464 2.98857C94.3342 3.11969 94.7674 3.17088 94.6895 3.01493ZM71.6438 1.63874C71.6309 1.62558 71.128 1.59425 71.1127 1.60533C70.8414 1.8279 71.8569 1.89187 71.6438 1.63874ZM109.293 3.47341C109.535 3.33701 109.812 3.32762 110 3.51247C109.76 3.4967 109.531 3.48903 109.293 3.47341Z" fill="#FE7203"/>
</svg>
