<svg width="20" height="20" viewBox="0 0 20 20" fill="none" xmlns="http://www.w3.org/2000/svg">
<path fill-rule="evenodd" clip-rule="evenodd" d="M1.78219 10.2579C2.40335 7.73225 2.36267 5.30009 2.43711 2.73831C2.45158 2.23801 2.05857 1.82207 1.55978 1.807C1.06068 1.79193 0.644157 2.18676 0.629389 2.68706C0.558865 5.11623 0.615834 7.42784 0.026324 9.82686C-0.0930247 10.3121 0.203846 10.8034 0.688474 10.9209C1.1728 11.0414 1.66314 10.7431 1.78219 10.2579Z" fill="black"/>
<path fill-rule="evenodd" clip-rule="evenodd" d="M7.0597 15.1523C11.2737 11.3006 15.2441 6.3458 18.0193 1.3428C18.2613 0.905795 18.1037 0.354237 17.6673 0.113128C17.2309 -0.12798 16.6799 0.0287533 16.4379 0.465762C13.7544 5.303 9.91443 10.095 5.8397 13.8172C5.47141 14.1547 5.44579 14.7273 5.78244 15.095C6.11909 15.4627 6.69141 15.4898 7.0597 15.1523Z" fill="black"/>
<path fill-rule="evenodd" clip-rule="evenodd" d="M8.12726 19.3596C11.9814 19.9955 15.9539 18.9105 19.4584 17.3765C19.9156 17.1746 20.1242 16.6411 19.9244 16.186C19.7243 15.7279 19.1905 15.52 18.7333 15.7189C15.5416 17.1173 11.9319 18.1541 8.42171 17.5754C7.92925 17.494 7.46361 17.8286 7.38253 18.3198C7.30116 18.8111 7.6351 19.2782 8.12726 19.3596Z" fill="black"/>
</svg>
