<svg width="20" height="20" viewBox="0 0 20 20" fill="none" xmlns="http://www.w3.org/2000/svg">
<path fill-rule="evenodd" clip-rule="evenodd" d="M18.218 10.2579C17.5968 7.73225 17.6375 5.30009 17.5631 2.73831C17.5486 2.23801 17.9416 1.82207 18.4404 1.807C18.9395 1.79193 19.356 2.18676 19.3708 2.68706C19.4413 5.11623 19.3843 7.42784 19.9739 9.82686C20.0932 10.3121 19.7963 10.8034 19.3117 10.9209C18.8274 11.0414 18.337 10.7431 18.218 10.2579Z" fill="black"/>
<path fill-rule="evenodd" clip-rule="evenodd" d="M12.9405 15.1523C8.72651 11.3006 4.75605 6.3458 1.9809 1.3428C1.73888 0.905795 1.89652 0.354237 2.33292 0.113128C2.76933 -0.12798 3.32026 0.0287533 3.56227 0.465762C6.2458 5.303 10.0857 10.095 14.1605 13.8172C14.5288 14.1547 14.5544 14.7273 14.2177 15.095C13.8811 15.4627 13.3088 15.4898 12.9405 15.1523Z" fill="black"/>
<path fill-rule="evenodd" clip-rule="evenodd" d="M11.873 19.3596C8.01887 19.9955 4.04631 18.9105 0.5418 17.3765C0.0845986 17.1746 -0.123966 16.6411 0.0758522 16.186C0.275972 15.7279 0.809734 15.52 1.26694 15.7189C4.45861 17.1173 8.0683 18.1541 11.5785 17.5754C12.071 17.494 12.5366 17.8286 12.6177 18.3198C12.6991 18.8111 12.3651 19.2782 11.873 19.3596Z" fill="black"/>
</svg>
