<svg width="23" height="13" viewBox="0 0 23 13" fill="none" xmlns="http://www.w3.org/2000/svg">
<g clip-path="url(#clip0_27_128)">
<path d="M22.7918 3.51858C22.78 3.33519 22.7683 3.15182 22.7567 2.96843C22.7346 2.51784 22.5733 2.08511 22.295 1.72972C22.0249 1.3865 21.6813 1.25275 21.3014 1.34302L21.1992 1.36708C20.8935 1.43874 20.5774 1.51282 20.3032 1.66411C19.8203 1.93072 19.3448 2.22743 18.8851 2.51424C18.6836 2.63996 18.4822 2.76569 18.2791 2.88956C18.2575 2.90242 18.2353 2.91406 18.2125 2.92444C18.19 2.82269 18.1688 2.72167 18.1477 2.62159C18.0839 2.31936 18.0236 2.03397 17.9395 1.74858C17.8564 1.45038 17.7013 1.17712 17.4877 0.952793C17.2742 0.728469 17.0086 0.559929 16.7146 0.462024C16.3315 0.324988 15.924 0.189896 15.5238 0.173217C13.74 0.0990419 12.1055 0.0562862 10.5267 0.0427084C8.51728 0.0259455 6.46941 0.0443067 4.70765 0.0634163C3.89711 0.0717977 2.94067 0.0918289 1.99297 0.171704C1.14265 0.243197 0.596349 0.71893 0.413105 1.54751C0.40555 1.58188 0.394636 1.61556 0.383892 1.64934C0.373147 1.68312 0.362242 1.71749 0.353848 1.7521C0.085235 2.86348 0.00447677 4.08785 0.107976 5.49493C0.193429 6.65718 0.317832 7.83544 0.438456 8.97502C0.466436 9.24012 0.494417 9.50531 0.522398 9.77066C0.577463 10.2994 0.644958 10.7722 0.914744 11.2039C1.40161 11.9827 2.08153 12.3773 2.93774 12.3773C2.9536 12.3773 2.96955 12.3773 2.9855 12.3769C3.52121 12.3678 4.06558 12.3524 4.59206 12.3375C5.16647 12.3213 5.76052 12.3045 6.34458 12.2956C7.64848 12.2762 8.95235 12.2593 10.2563 12.2446C11.5524 12.229 12.8486 12.2122 14.1448 12.1943C14.6968 12.1859 15.2849 12.1727 15.8735 12.1079C16.4695 12.0423 17.0882 11.9374 17.5329 11.4474C17.8513 11.0966 18.2429 10.6649 18.364 10.0361L18.481 10.0935C18.618 10.1606 18.7376 10.2192 18.8587 10.2755L19.0056 10.3438C19.5391 10.5918 20.0906 10.8483 20.6958 10.937C21.4235 11.0438 21.9509 10.9528 22.3082 10.6593C22.6418 10.3854 22.8193 9.93636 22.8511 9.28655C22.8987 8.3119 22.9403 7.2674 22.9237 6.2328C22.9082 5.32694 22.849 4.40768 22.7918 3.51858ZM21.7165 9.26945C21.7059 9.37607 21.6839 9.48117 21.6513 9.58317C21.6421 9.6167 21.6328 9.64922 21.6243 9.68224C21.1068 9.76739 20.6781 9.5975 20.2913 9.3997C19.8455 9.17173 19.4094 8.92104 18.9875 8.6789C18.8246 8.58536 18.6636 8.49292 18.5047 8.40315L18.3494 3.99453C19.3725 3.35269 20.3098 2.78987 21.3593 2.40207C21.5574 2.56458 21.5891 2.77741 21.6039 2.9825C21.7292 4.70799 21.8553 6.98218 21.7165 9.26945ZM1.88569 10.0205C1.83348 9.64938 1.77959 9.26577 1.74399 8.88776C1.70958 8.52166 1.6839 8.14796 1.65905 7.78656C1.64705 7.61205 1.63504 7.43746 1.62203 7.26304C1.61195 7.12777 1.60307 6.99251 1.59417 6.85715C1.57327 6.54025 1.55161 6.21242 1.51501 5.89083C1.37993 4.78851 1.38958 3.67333 1.54371 2.5735C1.55999 2.46211 1.58417 2.3487 1.60759 2.2389C1.63101 2.12911 1.65544 2.01453 1.6724 1.89996C1.71681 1.60108 1.89182 1.44232 2.2401 1.38549C2.60373 1.3259 2.96082 1.26993 3.30154 1.21889C4.06563 1.11396 4.83652 1.06614 5.60775 1.07582C5.72264 1.07582 5.83658 1.07635 5.94956 1.07742C7.06825 1.0868 8.20558 1.08102 9.30541 1.07532C10.3518 1.06996 11.4338 1.06443 12.4975 1.07205C13.4545 1.07884 14.4378 1.15334 15.2837 1.2229C15.5888 1.26134 15.8884 1.33446 16.177 1.44083L16.2609 1.46817C16.421 1.51201 16.5654 1.60002 16.6776 1.72214C16.7898 1.84427 16.8653 1.99552 16.8953 2.15853C16.9826 2.57483 17.048 2.99544 17.0912 3.41861C17.1676 4.272 17.2327 5.12737 17.2901 5.88211C17.3111 6.15795 17.3311 6.42073 17.3503 6.66521L17.3095 7.47762C17.2754 8.15844 17.2463 8.73967 17.2138 9.32075C17.2091 9.47178 17.1873 9.62173 17.1488 9.76781C16.9783 10.3419 16.6632 10.657 16.1858 10.7313C15.7641 10.7952 15.3386 10.8312 14.9123 10.8389C13.3652 10.8717 11.7919 10.9012 10.2703 10.9297C8.90325 10.9553 7.53628 10.9818 6.16931 11.0093C5.6383 11.0202 5.09915 11.0414 4.5777 11.0618C4.23287 11.0752 3.88812 11.0888 3.54321 11.0996C3.41864 11.1034 3.2897 11.0983 3.16547 11.0931C3.09194 11.0901 3.01848 11.087 2.94503 11.0856C2.31799 11.0743 1.96342 10.577 1.8992 10.1196L1.88569 10.0205Z" fill="#333333"/>
</g>
<defs>
<clipPath id="clip0_27_128">
<rect width="23" height="12.4045" fill="white"/>
</clipPath>
</defs>
</svg>
