<svg width="188" height="16" viewBox="0 0 188 16" fill="none" xmlns="http://www.w3.org/2000/svg">
<path d="M0.5 1.76543C0.568285 1.76543 0.63657 1.76543 30.7384 1.49308C60.8403 1.22073 120.974 0.676029 152.643 0.536872C184.313 0.397715 185.697 0.680605 186.572 0.916244C187.447 1.15188 187.771 1.3317 187.249 1.7377C186.727 2.14371 185.349 2.77046 171.085 3.49888C156.821 4.2273 129.712 5.0384 113.827 5.89649C97.9414 6.75458 94.1014 7.63508 92.2911 8.20165C90.4808 8.76821 90.8165 8.99415 96.0144 9.42248C101.212 9.85081 111.262 10.4747 113.39 11.2519C115.518 12.029 109.42 12.9406 108.178 13.6331C106.936 14.3257 110.735 14.7716 112.507 15.0457C114.279 15.3197 113.91 15.4085 113.391 15.5" stroke="#FE7203" stroke-linecap="round"/>
</svg>
