<svg width="41" height="41" viewBox="0 0 41 41" fill="none" xmlns="http://www.w3.org/2000/svg">
<path fill-rule="evenodd" clip-rule="evenodd" d="M38.8182 12.9025C31.123 27.2115 15.7512 33.0289 1.47406 24.9733C0.998774 24.7051 0.396055 24.8728 0.127814 25.3422C-0.140426 25.82 0.0272422 26.4235 0.502531 26.6918C15.8057 35.3341 32.31 29.173 40.5584 13.8414C40.8166 13.3636 40.6364 12.76 40.1561 12.5001C39.6757 12.2486 39.0764 12.4247 38.8182 12.9025Z" fill="black"/>
<path d="M13.487 18.8366C15.0766 18.8366 16.3652 17.548 16.3652 15.9585C16.3652 14.3689 15.0766 13.0803 13.487 13.0803C11.8975 13.0803 10.6089 14.3689 10.6089 15.9585C10.6089 17.548 11.8975 18.8366 13.487 18.8366Z" fill="black"/>
<path d="M25.4039 15.7749C26.9624 15.7749 28.2259 14.5115 28.2259 12.953C28.2259 11.3945 26.9624 10.1311 25.4039 10.1311C23.8454 10.1311 22.582 11.3945 22.582 12.953C22.582 14.5115 23.8454 15.7749 25.4039 15.7749Z" fill="black"/>
</svg>
