<svg width="156" height="58" viewBox="0 0 156 58" fill="none" xmlns="http://www.w3.org/2000/svg">
<path d="M105.114 2.03242C117.231 3.89837 129.791 5.53312 140.734 10.6853C149.337 14.82 156.607 23.2227 155.832 32.0471C155.428 40.1181 143.811 48.3871 135.741 51.3351C130.15 53.44 124.295 55.0371 118.237 55.7037C104.652 57.2266 90.5255 59.4587 77.0433 56.33C80.1044 55.8625 83.1994 55.5311 86.307 55.4535C94.4372 55.6568 102.547 55.1321 110.602 54.1918C117.507 53.4378 124.481 52.6839 130.979 50.4108C136.544 48.6957 141.795 46.1786 145.907 42.4579C148.225 40.574 150.394 38.4876 151.818 36.007C155.61 28.936 150.676 20.5799 144.394 15.8371C134.7 8.92494 121.697 7.19412 109.725 5.15917C88.3126 1.76852 66.2372 1.41821 44.75 4.51038C32.5525 6.17445 20.2813 9.2174 9.76101 14.9428C-6.7739 24.5635 9.76207 34.3253 21.1311 39.2021C47.9633 49.9014 79.6402 51.9642 107.964 44.6798C108.973 44.2837 110.702 43.962 110.712 42.7926C111.565 45.1506 105.726 47.4096 103.648 48.0841C75.8104 54.7696 37.784 51.1483 13.0274 38.0317C6.93957 34.5577 -0.572978 29.8137 0.0345995 22.7504C1.71167 10.6174 29.6426 4.46888 41.5212 2.50294C62.5275 -0.670624 84.05 -0.824674 105.114 2.03242Z" fill="#FE7203"/>
</svg>
