<svg width="88" height="4" viewBox="0 0 88 4" fill="none" xmlns="http://www.w3.org/2000/svg">
<path d="M7.46132 2.05691C8.14946 2.12478 9.48925 2.07779 10.2188 2.05329C10.2324 2.05287 10.2459 2.05245 10.2595 2.05203C10.4346 2.04616 10.6075 2.04339 10.7937 2.04045C11.1583 2.03477 11.6198 2.02756 12.4631 1.99466C12.6715 1.98625 12.9069 1.97613 13.1766 1.96388C13.57 1.96261 13.9252 1.96094 14.313 1.95815C18.3955 1.92903 22.4915 1.8474 26.5753 1.76156C26.6268 1.76185 26.6793 1.76215 26.7323 1.76246C27.7629 1.76829 29.0303 1.77646 29.8281 1.74756C30.8472 1.71077 31.5328 1.67734 32.1011 1.64857C35.3474 1.58665 38.594 1.53746 41.8424 1.52934C42.8588 1.52681 43.8767 1.52839 44.8956 1.53491C45.8316 1.5409 46.7672 1.5502 47.7072 1.5627C48.2483 1.58409 48.7735 1.60887 49.2519 1.63204C49.9209 1.66454 50.5342 1.69422 51.0234 1.70728C52.2298 1.73895 53.5727 1.72808 54.5911 1.72249C54.7556 1.72153 54.9072 1.72061 55.0521 1.72007C55.4548 1.73175 55.8515 1.74386 56.2417 1.75635C56.6532 1.76932 57.056 1.78268 57.453 1.79641C57.5076 1.79106 57.5624 1.78545 57.618 1.77969C58.3098 1.70801 59.1384 1.7262 60.4661 1.76191C61.0385 1.77744 61.705 1.79641 62.4939 1.81438C62.9904 1.82566 63.2658 1.80077 63.4738 1.77988C63.536 1.77378 63.5941 1.76808 63.6526 1.76389C63.8544 1.74955 64.0754 1.78004 64.3248 1.81594C64.6426 1.86232 65.0502 1.91933 65.5622 1.90156C67.2316 1.84731 67.9499 1.96716 68.5008 2.05664C68.6564 2.08277 68.8094 2.10717 68.9584 2.12419C69.4331 2.1787 70.1443 2.18941 70.6607 2.18088C71.085 2.17451 71.9089 2.25978 72.5349 2.34614C72.7727 2.3787 73.0967 2.40321 73.4698 2.43318C73.8675 2.46512 74.3125 2.50251 74.7977 2.5633C76.0177 2.71731 76.6608 2.80993 77.1824 2.88332C77.3326 2.90463 77.4672 2.924 77.6072 2.94431C77.6583 2.95174 77.7104 2.95928 77.7632 2.96689L77.7481 2.96501C78.1621 3.0333 78.6326 3.10728 79.1216 3.18349C79.7786 3.28604 80.4459 3.3895 80.952 3.47606C82.2724 3.63084 83.5963 3.77615 84.9161 3.92614C85.5389 3.99762 86.1481 4.01586 86.6043 3.99412L86.5922 3.99171C86.629 3.99088 86.6646 3.98973 86.6994 3.98831C87.1645 3.96728 87.4637 3.91396 87.5177 3.7552C87.5687 3.60233 87.3653 3.34992 86.8942 3.119C86.86 3.10213 86.8248 3.08551 86.7883 3.06911C86.3201 2.87261 85.713 2.72539 85.0898 2.62923C83.7206 2.42089 82.3707 2.22035 81.0031 2.01746C79.9852 1.86669 78.9649 1.71718 77.9367 1.57063C77.9337 1.57029 77.9246 1.56902 77.9215 1.56874C77.2841 1.49181 76.6372 1.41938 75.9948 1.35582C74.8192 1.23926 73.6473 1.14545 72.4669 1.06801C72.3481 1.06023 72.2277 1.05255 72.1054 1.04487C71.1147 0.935412 70.1388 0.841149 69.441 0.789959C68.8746 0.748202 68.4535 0.748805 68.0918 0.749677C67.8411 0.750235 67.6313 0.751637 67.4071 0.739525C67.2863 0.733011 67.1252 0.723187 66.9327 0.711678C66.1343 0.663689 64.7845 0.589032 63.5494 0.587863C63.0014 0.587111 62.3693 0.602034 61.7545 0.617429C60.8904 0.639766 60.0805 0.663599 59.6668 0.640123C58.9573 0.599178 58.1346 0.601321 57.3999 0.60467C56.9821 0.606822 56.5876 0.609123 56.2622 0.602902C56.0638 0.599095 55.8923 0.591855 55.7593 0.578968C55.3492 0.539222 54.9902 0.546746 54.4735 0.558677C54.1116 0.566926 53.6619 0.577078 53.0617 0.575764C52.3572 0.574131 51.8729 0.591304 51.4496 0.605875C50.8509 0.626422 50.4205 0.642385 49.7508 0.597574C49.0224 0.547969 48.2448 0.514088 47.6447 0.522453C47.3698 0.526242 47.0508 0.522199 46.7237 0.518148C46.2918 0.512788 45.8346 0.507389 45.4147 0.519725C45.0726 0.529916 44.7888 0.56008 44.537 0.586818C44.4584 0.59516 44.383 0.603126 44.3099 0.610093C44.0348 0.608028 43.7616 0.605854 43.4886 0.603401C43.4444 0.598011 43.3979 0.592059 43.3493 0.585914C43.1057 0.555081 42.8053 0.517302 42.4327 0.497437C41.8471 0.466033 41.3291 0.481631 40.7848 0.498425C40.3618 0.51151 39.9206 0.525296 39.4144 0.518106C39.0703 0.513203 38.6779 0.498945 38.2887 0.484939C37.7105 0.464127 37.1405 0.443926 36.7439 0.455164C36.5953 0.459374 36.4676 0.479208 36.3411 0.49895C36.3406 0.499071 36.34 0.499192 36.3395 0.499313C36.3309 0.500654 36.3222 0.501961 36.3137 0.503294C35.3483 0.486248 34.3814 0.468263 33.4176 0.449955C33.3337 0.444749 33.249 0.439616 33.165 0.434568C32.7549 0.409894 32.3575 0.386051 32.0988 0.352279C31.8185 0.315662 31.1087 0.294445 30.3663 0.272511C29.8764 0.258137 29.3729 0.243455 28.9631 0.223648C28.721 0.212075 28.4921 0.233068 28.2572 0.254743C28.0381 0.274967 27.8137 0.295749 27.5692 0.291123C27.4463 0.288802 27.3116 0.280477 27.1693 0.271581C27.0438 0.263751 26.9114 0.25546 26.773 0.250504C26.644 0.245917 26.36 0.257766 25.9929 0.272953C25.7643 0.282342 25.5056 0.292979 25.2355 0.301918C24.5274 0.290868 23.8023 0.280682 23.0908 0.271614C22.9403 0.253989 22.8103 0.230903 22.7075 0.201046C22.6338 0.179624 22.571 0.153931 22.5067 0.127667C22.4192 0.0919278 22.3288 0.054997 22.2047 0.0257494C22.1076 0.00289536 21.9939 -0.00592279 21.9172 0.00401282C21.8808 0.00864935 21.8529 0.0172298 21.8275 0.0249898C21.7986 0.033879 21.7727 0.0417852 21.7411 0.0416849C21.7183 0.0415976 21.6946 0.0354748 21.6655 0.0280659C21.6189 0.0162351 21.5584 0.000963926 21.4667 0.000780821C21.1234 0.000110149 20.7481 0.00665498 20.3634 0.0132685C19.9378 0.0206106 19.5333 0.0278134 19.205 0.0247982C18.83 0.0214479 18.3186 0.0471423 17.7891 0.0730734C17.4188 0.0911646 17.06 0.109207 16.7457 0.11764C16.4329 0.12593 16.1119 0.115153 15.8062 0.10466C15.4361 0.0920815 15.0677 0.0801141 14.7693 0.102426C14.7086 0.106957 14.6335 0.132499 14.5398 0.16446C14.4703 0.187134 14.3907 0.213063 14.3006 0.237091C13.904 0.239946 13.5383 0.243718 13.1364 0.24878C13.1226 0.245495 13.1083 0.242153 13.0941 0.238737C13.0939 0.238658 13.0936 0.238578 13.0934 0.238498C12.9145 0.195579 12.701 0.143878 12.4475 0.118572C12.2343 0.098531 11.9945 0.0952165 11.7273 0.126359C11.5735 0.144231 11.4818 0.17556 11.389 0.203852C11.3006 0.231614 11.222 0.256457 11.108 0.262589C10.9785 0.269537 10.8272 0.25441 10.6652 0.237975C10.4353 0.214918 10.1635 0.189382 9.90914 0.218316C9.89164 0.220292 9.87285 0.222457 9.85333 0.224633C9.67451 0.245197 9.37598 0.276048 9.10568 0.334771C8.27601 0.358953 7.45315 0.386706 6.62673 0.418055C5.25884 0.470776 3.86693 0.530515 2.48884 0.61261C1.82176 0.653078 1.1669 0.759317 0.697166 0.920402C0.220842 1.08243 -0.0184473 1.27817 0.00110751 1.43691C0.0220794 1.59862 0.303782 1.71297 0.769484 1.79598C1.23266 1.879 1.87419 1.92498 2.53359 1.92034C3.62189 1.91239 4.70845 1.91984 5.79684 1.92755C5.85328 1.92995 5.91058 1.93224 5.96824 1.93433C6.39658 1.94993 6.7938 1.9895 7.18315 2.0296C7.27439 2.03879 7.36708 2.048 7.46132 2.05691Z" fill="#FE7203"/>
</svg>
